<?xml version="1.0" encoding="UTF-8"?>
<svg xmlns="http://www.w3.org/2000/svg" width="1280" height="720" viewBox="0 0 1280 720">
  <defs>
    <linearGradient id="bg" x1="0" y1="0" x2="1" y2="1">
      <stop offset="0" stop-color="#F5FAFD"/>
      <stop offset="1" stop-color="#E8F1F8"/>
    </linearGradient>
    <linearGradient id="blue" x1="0" y1="0" x2="1" y2="1">
      <stop offset="0" stop-color="#256FA8"/>
      <stop offset="1" stop-color="#133B5C"/>
    </linearGradient>
    <filter id="shadow" x="-20%" y="-20%" width="140%" height="140%">
      <feDropShadow dx="0" dy="12" stdDeviation="14" flood-color="#123B5C" flood-opacity="0.14"/>
    </filter>
    <marker id="arrow" viewBox="0 0 10 10" refX="9" refY="5" markerWidth="8" markerHeight="8" orient="auto-start-reverse">
      <path d="M 0 0 L 10 5 L 0 10 z" fill="#256FA8"/>
    </marker>
  </defs>
  <rect width="1280" height="720" rx="34" fill="url(#bg)"/>
  <rect x="58" y="54" width="1164" height="612" rx="30" fill="#FFFFFF" filter="url(#shadow)"/>
  <rect x="58" y="54" width="1164" height="66" rx="30" fill="#133B5C"/>
  <circle cx="96" cy="88" r="9" fill="#F05D5E"/>
  <circle cx="124" cy="88" r="9" fill="#F0B44C"/>
  <circle cx="152" cy="88" r="9" fill="#51C4B8"/>
  <text x="190" y="95" font-family="Aptos, Arial, sans-serif" font-size="22" font-weight="700" fill="#FFFFFF">Architecture du projet</text>

  <g font-family="Aptos, Arial, sans-serif" font-size="20" font-weight="700">
    <rect x="106" y="185" width="190" height="106" rx="18" fill="#256FA8"/>
    <text x="201" y="229" text-anchor="middle" fill="#FFFFFF">Frontend</text>
    <text x="201" y="258" text-anchor="middle" font-size="16" font-weight="500" fill="#DCEBF5">React + Vite</text>

    <rect x="420" y="185" width="205" height="106" rx="18" fill="#133B5C"/>
    <text x="522" y="229" text-anchor="middle" fill="#FFFFFF">Backend API</text>
    <text x="522" y="258" text-anchor="middle" font-size="16" font-weight="500" fill="#DCEBF5">Node + Express</text>

    <rect x="745" y="176" width="190" height="92" rx="18" fill="#51C4B8"/>
    <text x="840" y="214" text-anchor="middle" fill="#102A43">MySQL</text>
    <text x="840" y="243" text-anchor="middle" font-size="15" font-weight="500" fill="#17324D">données métier</text>

    <rect x="745" y="304" width="190" height="92" rx="18" fill="#F0B44C"/>
    <text x="840" y="343" text-anchor="middle" fill="#102A43">Uploads</text>
    <text x="840" y="372" text-anchor="middle" font-size="15" font-weight="500" fill="#17324D">PDF devoirs</text>

    <rect x="1012" y="185" width="162" height="106" rx="18" fill="#1B5E8C"/>
    <text x="1093" y="229" text-anchor="middle" fill="#FFFFFF">n8n</text>
    <text x="1093" y="258" text-anchor="middle" font-size="16" font-weight="500" fill="#DCEBF5">webhooks</text>

    <rect x="1012" y="386" width="162" height="106" rx="18" fill="#D9524A"/>
    <text x="1093" y="430" text-anchor="middle" fill="#FFFFFF">Gemini</text>
    <text x="1093" y="459" text-anchor="middle" font-size="16" font-weight="500" fill="#FFE4E1">analyse IA</text>
  </g>

  <g fill="none" stroke="#256FA8" stroke-width="5" marker-end="url(#arrow)">
    <path d="M296 238 H410"/>
    <path d="M625 222 H735"/>
    <path d="M625 254 C670 254 682 350 735 350"/>
    <path d="M935 222 H1000"/>
    <path d="M1093 291 V372"/>
    <path d="M1012 439 C845 600 556 570 522 305"/>
  </g>

  <g font-family="Aptos, Arial, sans-serif">
    <rect x="126" y="480" width="322" height="92" rx="18" fill="#F4F8FB" stroke="#D8E4EE"/>
    <text x="150" y="516" font-size="18" font-weight="700" fill="#133B5C">Sécurité</text>
    <text x="150" y="546" font-size="15" fill="#5F6C7B">JWT, rôles, CORS, validation, secrets</text>

    <rect x="478" y="480" width="322" height="92" rx="18" fill="#F4F8FB" stroke="#D8E4EE"/>
    <text x="502" y="516" font-size="18" font-weight="700" fill="#133B5C">Tests</text>
    <text x="502" y="546" font-size="15" fill="#5F6C7B">Vitest, Supertest, Playwright</text>

    <rect x="830" y="480" width="322" height="92" rx="18" fill="#F4F8FB" stroke="#D8E4EE"/>
    <text x="854" y="516" font-size="18" font-weight="700" fill="#133B5C">Résultat</text>
    <text x="854" y="546" font-size="15" fill="#5F6C7B">score, feedback français, alertes</text>
  </g>
</svg>